<svg width="186" height="42" viewBox="0 0 186 42" fill="none" xmlns="http://www.w3.org/2000/svg">
<rect width="186" height="42" rx="8" fill="#008772"/>
<path d="M23 22H29V28H31V22H37V20H31V14H29V20H23V22Z" fill="#FBFBFB"/>
<path d="M53.87 27V16.992H50.468V15.228H59.36V16.992H55.958V27H53.87ZM62.0517 27.216C61.2837 27.216 60.6537 26.976 60.1617 26.496C59.6817 26.016 59.4417 25.392 59.4417 24.624C59.4417 23.676 59.8557 22.944 60.6837 22.428C61.5117 21.9 62.8317 21.54 64.6437 21.348C64.6317 20.88 64.5057 20.478 64.2657 20.142C64.0377 19.794 63.6237 19.62 63.0237 19.62C62.5917 19.62 62.1657 19.704 61.7457 19.872C61.3377 20.04 60.9357 20.244 60.5397 20.484L59.7837 19.098C60.2757 18.786 60.8277 18.516 61.4397 18.288C62.0637 18.06 62.7237 17.946 63.4197 17.946C64.5237 17.946 65.3457 18.276 65.8857 18.936C66.4377 19.584 66.7137 20.526 66.7137 21.762V27H65.0037L64.8597 26.028H64.7877C64.3917 26.364 63.9657 26.646 63.5097 26.874C63.0657 27.102 62.5797 27.216 62.0517 27.216ZM62.7177 25.596C63.0777 25.596 63.4017 25.512 63.6897 25.344C63.9897 25.164 64.3077 24.924 64.6437 24.624V22.644C63.4437 22.8 62.6097 23.034 62.1417 23.346C61.6737 23.646 61.4397 24.018 61.4397 24.462C61.4397 24.858 61.5597 25.146 61.7997 25.326C62.0397 25.506 62.3457 25.596 62.7177 25.596ZM69.191 27V18.162H70.901L71.045 19.368H71.117C71.489 18.972 71.891 18.636 72.323 18.36C72.767 18.084 73.265 17.946 73.817 17.946C74.465 17.946 74.981 18.09 75.365 18.378C75.761 18.654 76.061 19.038 76.265 19.53C76.685 19.074 77.123 18.696 77.579 18.396C78.047 18.096 78.557 17.946 79.109 17.946C80.045 17.946 80.735 18.252 81.179 18.864C81.623 19.476 81.845 20.34 81.845 21.456V27H79.757V21.726C79.757 20.994 79.643 20.478 79.415 20.178C79.199 19.878 78.863 19.728 78.407 19.728C77.855 19.728 77.237 20.094 76.553 20.826V27H74.483V21.726C74.483 20.994 74.369 20.478 74.141 20.178C73.925 19.878 73.583 19.728 73.115 19.728C72.563 19.728 71.945 20.094 71.261 20.826V27H69.191ZM88.6449 27.216C87.8049 27.216 87.0009 26.832 86.2329 26.064H86.1789L85.9989 27H84.3609V14.292H86.4309V17.568L86.3769 19.044C86.7489 18.72 87.1569 18.456 87.6009 18.252C88.0449 18.048 88.4889 17.946 88.9329 17.946C90.0369 17.946 90.8949 18.354 91.5069 19.17C92.1189 19.986 92.4249 21.072 92.4249 22.428C92.4249 23.436 92.2449 24.3 91.8849 25.02C91.5249 25.728 91.0569 26.274 90.4809 26.658C89.9169 27.03 89.3049 27.216 88.6449 27.216ZM88.2129 25.506C88.8009 25.506 89.2929 25.248 89.6889 24.732C90.0849 24.216 90.2829 23.46 90.2829 22.464C90.2829 21.576 90.1329 20.886 89.8329 20.394C89.5329 19.902 89.0469 19.656 88.3749 19.656C87.7509 19.656 87.1029 19.986 86.4309 20.646V24.768C86.7429 25.032 87.0489 25.224 87.3489 25.344C87.6609 25.452 87.9489 25.506 88.2129 25.506ZM96.4345 27.216C95.6665 27.216 95.0365 26.976 94.5445 26.496C94.0645 26.016 93.8245 25.392 93.8245 24.624C93.8245 23.676 94.2385 22.944 95.0665 22.428C95.8945 21.9 97.2145 21.54 99.0265 21.348C99.0145 20.88 98.8885 20.478 98.6485 20.142C98.4205 19.794 98.0065 19.62 97.4065 19.62C96.9745 19.62 96.5485 19.704 96.1285 19.872C95.7205 20.04 95.3185 20.244 94.9225 20.484L94.1665 19.098C94.6585 18.786 95.2105 18.516 95.8225 18.288C96.4465 18.06 97.1065 17.946 97.8025 17.946C98.9065 17.946 99.7285 18.276 100.269 18.936C100.821 19.584 101.097 20.526 101.097 21.762V27H99.3865L99.2425 26.028H99.1705C98.7745 26.364 98.3485 26.646 97.8925 26.874C97.4485 27.102 96.9625 27.216 96.4345 27.216ZM97.1005 25.596C97.4605 25.596 97.7845 25.512 98.0725 25.344C98.3725 25.164 98.6905 24.924 99.0265 24.624V22.644C97.8265 22.8 96.9925 23.034 96.5245 23.346C96.0565 23.646 95.8225 24.018 95.8225 24.462C95.8225 24.858 95.9425 25.146 96.1825 25.326C96.4225 25.506 96.7285 25.596 97.1005 25.596ZM103.574 27V14.292H105.644V17.568L105.572 19.278C105.944 18.93 106.358 18.624 106.814 18.36C107.27 18.084 107.798 17.946 108.398 17.946C109.346 17.946 110.036 18.252 110.468 18.864C110.9 19.476 111.116 20.34 111.116 21.456V27H109.046V21.726C109.046 20.994 108.938 20.478 108.722 20.178C108.506 19.878 108.152 19.728 107.66 19.728C107.276 19.728 106.934 19.824 106.634 20.016C106.346 20.196 106.016 20.466 105.644 20.826V27H103.574ZM117.394 27V15.228H120.544C122.344 15.228 123.748 15.714 124.756 16.686C125.764 17.658 126.268 19.116 126.268 21.06C126.268 23.016 125.77 24.498 124.774 25.506C123.778 26.502 122.404 27 120.652 27H117.394ZM119.482 25.308H120.4C121.588 25.308 122.506 24.966 123.154 24.282C123.802 23.586 124.126 22.512 124.126 21.06C124.126 19.62 123.802 18.57 123.154 17.91C122.506 17.25 121.588 16.92 120.4 16.92H119.482V25.308ZM132.082 27.216C131.35 27.216 130.666 27.036 130.03 26.676C129.394 26.304 128.878 25.776 128.482 25.092C128.086 24.396 127.888 23.562 127.888 22.59C127.888 21.606 128.086 20.772 128.482 20.088C128.878 19.392 129.394 18.864 130.03 18.504C130.666 18.132 131.35 17.946 132.082 17.946C132.826 17.946 133.516 18.132 134.152 18.504C134.788 18.864 135.304 19.392 135.7 20.088C136.096 20.772 136.294 21.606 136.294 22.59C136.294 23.562 136.096 24.396 135.7 25.092C135.304 25.776 134.788 26.304 134.152 26.676C133.516 27.036 132.826 27.216 132.082 27.216ZM132.082 25.524C132.73 25.524 133.24 25.254 133.612 24.714C133.984 24.174 134.17 23.466 134.17 22.59C134.17 21.702 133.984 20.988 133.612 20.448C133.24 19.908 132.73 19.638 132.082 19.638C131.434 19.638 130.924 19.908 130.552 20.448C130.192 20.988 130.012 21.702 130.012 22.59C130.012 23.466 130.192 24.174 130.552 24.714C130.924 25.254 131.434 25.524 132.082 25.524ZM138.343 27V14.292H140.377V22.23H140.431L143.707 18.162H145.975L142.951 21.762L146.281 27H144.031L141.763 23.166L140.377 24.75V27H138.343ZM150.352 27.216C149.332 27.216 148.606 26.922 148.174 26.334C147.754 25.734 147.544 24.96 147.544 24.012V19.8H146.284V18.252L147.652 18.162L147.904 15.75H149.632V18.162H151.882V19.8H149.632V24.012C149.632 25.044 150.046 25.56 150.874 25.56C151.03 25.56 151.192 25.542 151.36 25.506C151.528 25.458 151.672 25.41 151.792 25.362L152.152 26.892C151.912 26.976 151.636 27.048 151.324 27.108C151.024 27.18 150.7 27.216 150.352 27.216ZM157.24 27.216C156.424 27.216 155.686 27.036 155.026 26.676C154.366 26.304 153.844 25.776 153.46 25.092C153.076 24.396 152.884 23.562 152.884 22.59C152.884 21.63 153.076 20.802 153.46 20.106C153.856 19.41 154.366 18.876 154.99 18.504C155.614 18.132 156.268 17.946 156.952 17.946C157.756 17.946 158.428 18.126 158.968 18.486C159.508 18.834 159.916 19.326 160.192 19.962C160.468 20.586 160.606 21.312 160.606 22.14C160.606 22.572 160.576 22.908 160.516 23.148H154.9C154.996 23.928 155.278 24.534 155.746 24.966C156.214 25.398 156.802 25.614 157.51 25.614C157.894 25.614 158.248 25.56 158.572 25.452C158.908 25.332 159.238 25.17 159.562 24.966L160.264 26.262C159.844 26.538 159.376 26.766 158.86 26.946C158.344 27.126 157.804 27.216 157.24 27.216ZM154.882 21.744H158.806C158.806 21.06 158.656 20.526 158.356 20.142C158.056 19.746 157.606 19.548 157.006 19.548C156.49 19.548 156.028 19.74 155.62 20.124C155.224 20.496 154.978 21.036 154.882 21.744ZM162.584 27V18.162H164.294L164.438 19.728H164.51C164.822 19.152 165.2 18.714 165.644 18.414C166.088 18.102 166.544 17.946 167.012 17.946C167.432 17.946 167.768 18.006 168.02 18.126L167.66 19.926C167.504 19.878 167.36 19.842 167.228 19.818C167.096 19.794 166.934 19.782 166.742 19.782C166.394 19.782 166.028 19.92 165.644 20.196C165.26 20.46 164.93 20.928 164.654 21.6V27H162.584Z" fill="white"/>
</svg>
