<svg width="14" height="16" viewBox="0 0 14 16" fill="none" xmlns="http://www.w3.org/2000/svg">
<path id="Vector" d="M5.4308 0L4.64644 0.784366H0.724609V2.3531H1.50898V14.1186C1.50898 14.5282 1.65905 14.9458 1.95478 15.2415C2.25051 15.5372 2.66809 15.6873 3.07771 15.6873H10.9214C11.331 15.6873 11.7486 15.5372 12.0443 15.2415C12.34 14.9458 12.4901 14.5282 12.4901 14.1186V2.3531H13.2745V0.784366H9.35263L8.56827 0H5.4308ZM3.07771 2.3531H10.9214V14.1186H3.07771V2.3531ZM4.64644 3.92183V12.5499H6.21517V3.92183H4.64644ZM7.7839 3.92183V12.5499H9.35263V3.92183H7.7839Z" fill="black"/>
</svg>
