<svg width="36" height="36" viewBox="0 0 36 36" fill="none" xmlns="http://www.w3.org/2000/svg">
<g id="ic:round-search">
<path id="Vector" d="M23.2502 20.9983H22.0652L21.6452 20.5933C22.5826 19.5042 23.2677 18.2214 23.6515 16.8367C24.0353 15.4519 24.1083 13.9995 23.8652 12.5833C23.1602 8.41325 19.6802 5.08325 15.4802 4.57325C14.0036 4.38645 12.5039 4.53991 11.0957 5.02189C9.6876 5.50386 8.40837 6.30158 7.35595 7.354C6.30353 8.40642 5.50582 9.68565 5.02384 11.0938C4.54186 12.5019 4.3884 14.0017 4.57521 15.4783C5.08521 19.6783 8.41521 23.1583 12.5852 23.8633C14.0014 24.1063 15.4539 24.0334 16.8386 23.6496C18.2234 23.2658 19.5062 22.5807 20.5952 21.6433L21.0002 22.0633V23.2483L27.3752 29.6233C27.9902 30.2383 28.9952 30.2383 29.6102 29.6233C30.2252 29.0083 30.2252 28.0033 29.6102 27.3883L23.2502 20.9983ZM14.2502 20.9983C10.5152 20.9983 7.50021 17.9833 7.50021 14.2483C7.50021 10.5133 10.5152 7.49825 14.2502 7.49825C17.9852 7.49825 21.0002 10.5133 21.0002 14.2483C21.0002 17.9833 17.9852 20.9983 14.2502 20.9983Z" fill="#565556"/>
</g>
</svg>
