<svg width="157" height="156" viewBox="0 0 157 156" fill="none" xmlns="http://www.w3.org/2000/svg">
<g id="add_photo_alternate">
<mask id="mask0_2043_54722" style="mask-type:alpha" maskUnits="userSpaceOnUse" x="0" y="0" width="157" height="156">
<rect id="Bounding box" x="0.5" width="156" height="156" fill="#D9D9D9"/>
</mask>
<g mask="url(#mask0_2043_54722)">
<path id="add_photo_alternate_2" d="M36.5275 133.052C33.1922 133.052 30.3371 131.864 27.962 129.489C25.587 127.114 24.3994 124.259 24.3994 120.924V36.0275C24.3994 32.6922 25.587 29.8371 27.962 27.462C30.3371 25.087 33.1922 23.8994 36.5275 23.8994H91.1037V36.0275H36.5275V120.924H121.424V66.3476H133.552V120.924C133.552 124.259 132.364 127.114 129.989 129.489C127.614 131.864 124.759 133.052 121.424 133.052H36.5275ZM109.296 60.2836V48.1555H97.1677V36.0275H109.296V23.8994H121.424V36.0275H133.552V48.1555H121.424V60.2836H109.296ZM42.5915 108.796H115.36L92.6197 78.4756L74.4276 102.732L60.7836 84.5397L42.5915 108.796Z" fill="#9C9C9C"/>
</g>
</g>
</svg>
